<svg xmlns="http://www.w3.org/2000/svg" width="1200" height="675" viewBox="0 0 1200 675" role="img" aria-labelledby="title desc">
  <title id="title">UK landlord compliance dashboard</title><desc id="desc">UK-relevant illustration for CompliantUK landlord compliance content.</desc>
  <defs><linearGradient id="sky" x1="0" y1="0" x2="0" y2="1"><stop offset="0" stop-color="#dbeafe"/><stop offset="1" stop-color="#f8fafc"/></linearGradient></defs>
  
        <rect width="1200" height="675" fill="#111827"/><rect x="120" y="95" width="960" height="485" rx="24" fill="#0f172a" stroke="#334155" stroke-width="6"/><rect x="170" y="155" width="280" height="160" rx="14" fill="#1e293b"/><rect x="490" y="155" width="250" height="160" rx="14" fill="#1e293b"/><rect x="780" y="155" width="250" height="160" rx="14" fill="#1e293b"/><path d="M190 470 L310 390 L430 420 L570 330 L730 380 L980 270" fill="none" stroke="#4f46e5" stroke-width="16" stroke-linecap="round" stroke-linejoin="round"/><circle cx="300" cy="235" r="50" fill="#dcfce7"/><path d="M275 235 L295 255 L330 215" fill="none" stroke="#16a34a" stroke-width="14" stroke-linecap="round" stroke-linejoin="round"/>
  <rect x="42" y="42" width="420" height="58" rx="29" fill="rgba(15,23,42,0.78)"/>
  <path d="M95 72H410" stroke="#dbeafe" stroke-width="10" stroke-linecap="round" opacity="0.92"/>
  <path d="M95 72H245" stroke="#60a5fa" stroke-width="10" stroke-linecap="round"/>
  
  <g transform="translate(1060 42)"><rect width="78" height="58" rx="29" fill="rgba(255,255,255,0.88)"/><path d="M39 10L18 19v17c0 16 9 28 21 33 12-5 21-17 21-33V19L39 10z" fill="#2563eb"/><path d="M29 37 L37 45 L51 27" fill="none" stroke="#fff" stroke-width="6" stroke-linecap="round" stroke-linejoin="round"/></g>
</svg>