<svg xmlns="http://www.w3.org/2000/svg" width="1200" height="675" viewBox="0 0 1200 675" role="img" aria-labelledby="title desc">
  <title id="title">Damp and mould in a UK rental property</title><desc id="desc">UK-relevant illustration for CompliantUK landlord compliance content.</desc>
  <defs><linearGradient id="sky" x1="0" y1="0" x2="0" y2="1"><stop offset="0" stop-color="#dbeafe"/><stop offset="1" stop-color="#f8fafc"/></linearGradient></defs>
  
        <rect width="1200" height="675" fill="#e2e8f0"/><rect x="90" y="90" width="1020" height="480" rx="18" fill="#f8fafc"/><rect x="170" y="150" width="360" height="340" rx="10" fill="#dbeafe" stroke="#94a3b8" stroke-width="16"/><rect x="205" y="185" width="290" height="270" fill="#eff6ff"/><path d="M650 180 C760 120 925 148 990 250 C1030 315 1000 445 890 490 C785 532 650 475 620 365 C600 290 590 225 650 180Z" fill="#dcfce7"/><g fill="#166534" opacity="0.72"><circle cx="760" cy="245" r="22"/><circle cx="835" cy="286" r="16"/><circle cx="720" cy="335" r="14"/><circle cx="900" cy="370" r="26"/><circle cx="805" cy="420" r="18"/><circle cx="690" cy="255" r="10"/></g><path d="M610 560 C720 515 880 515 1010 560" stroke="#059669" stroke-width="20" stroke-linecap="round"/>
  <rect x="42" y="42" width="420" height="58" rx="29" fill="rgba(15,23,42,0.78)"/>
  <path d="M95 72H410" stroke="#dbeafe" stroke-width="10" stroke-linecap="round" opacity="0.92"/>
  <path d="M95 72H245" stroke="#60a5fa" stroke-width="10" stroke-linecap="round"/>
  
  <g transform="translate(1060 42)"><rect width="78" height="58" rx="29" fill="rgba(255,255,255,0.88)"/><path d="M39 10L18 19v17c0 16 9 28 21 33 12-5 21-17 21-33V19L39 10z" fill="#2563eb"/><path d="M29 37 L37 45 L51 27" fill="none" stroke="#fff" stroke-width="6" stroke-linecap="round" stroke-linejoin="round"/></g>
</svg>