<svg xmlns="http://www.w3.org/2000/svg" width="1200" height="675" viewBox="0 0 1200 675" role="img" aria-labelledby="title desc">
  <title id="title">UK rental energy performance and EPC</title><desc id="desc">UK-relevant illustration for CompliantUK landlord compliance content.</desc>
  <defs><linearGradient id="sky" x1="0" y1="0" x2="0" y2="1"><stop offset="0" stop-color="#dbeafe"/><stop offset="1" stop-color="#f8fafc"/></linearGradient></defs>
  
        <rect width="1200" height="675" fill="#ecfccb"/><g transform="translate(120 170)"><rect x="0" y="110" width="390" height="260" rx="10" fill="#a16207"/><path d="M-30 110 L195 -45 L420 110 Z" fill="#1e293b"/><rect x="70" y="170" width="72" height="75" rx="7" fill="#dbeafe"/><rect x="245" y="170" width="72" height="75" rx="7" fill="#dbeafe"/><rect x="160" y="265" width="70" height="105" fill="#65a30d"/></g><g transform="translate(645 150)"><rect x="0" y="0" width="360" height="360" rx="20" fill="#fff" stroke="#bbf7d0" stroke-width="8"/><rect x="85" y="112" width="190" height="24" rx="12" fill="#16a34a"/><rect x="85" y="152" width="190" height="24" rx="12" fill="#65a30d"/><rect x="85" y="192" width="190" height="24" rx="12" fill="#a3e635"/><rect x="85" y="232" width="190" height="24" rx="12" fill="#facc15"/><rect x="85" y="272" width="190" height="24" rx="12" fill="#fb923c"/><rect x="85" y="312" width="190" height="24" rx="12" fill="#ef4444"/></g>
  <rect x="42" y="42" width="420" height="58" rx="29" fill="rgba(15,23,42,0.78)"/>
  <path d="M95 72H410" stroke="#dbeafe" stroke-width="10" stroke-linecap="round" opacity="0.92"/>
  <path d="M95 72H245" stroke="#60a5fa" stroke-width="10" stroke-linecap="round"/>
  
  <g transform="translate(1060 42)"><rect width="78" height="58" rx="29" fill="rgba(255,255,255,0.88)"/><path d="M39 10L18 19v17c0 16 9 28 21 33 12-5 21-17 21-33V19L39 10z" fill="#2563eb"/><path d="M29 37 L37 45 L51 27" fill="none" stroke="#fff" stroke-width="6" stroke-linecap="round" stroke-linejoin="round"/></g>
</svg>