<svg xmlns="http://www.w3.org/2000/svg" width="1200" height="675" viewBox="0 0 1200 675" role="img" aria-labelledby="title desc">
  <title id="title">UK student HMO property</title><desc id="desc">UK-relevant illustration for CompliantUK landlord compliance content.</desc>
  <defs><linearGradient id="sky" x1="0" y1="0" x2="0" y2="1"><stop offset="0" stop-color="#dbeafe"/><stop offset="1" stop-color="#f8fafc"/></linearGradient></defs>
  
      <rect x="0" y="0" width="1200" height="675" fill="url(#sky)"/>
      <rect x="0" y="470" width="1200" height="205" fill="#d7dee8"/>
      <rect x="0" y="520" width="1200" height="155" fill="#334155"/>
      <g opacity="0.25"><path d="M0 540H1200" stroke="#94a3b8" stroke-width="3"/><path d="M0 598H1200" stroke="#94a3b8" stroke-width="2"/></g>
      <g transform="translate(105 175)">
        <g transform="translate(0 0)"><rect x="0" y="120" width="148" height="220" rx="4" fill="#a54835"/><path d="M-10 120 L74 52 L158 120 Z" fill="#1f2937"/><rect x="24" y="165" width="34" height="54" rx="4" fill="#dbeafe"/><rect x="90" y="165" width="34" height="54" rx="4" fill="#dbeafe"/><rect x="55" y="250" width="38" height="90" rx="4" fill="#7c3aed"/><rect x="8" y="104" width="132" height="18" fill="#f8fafc"/><rect x="28" y="35" width="24" height="56" fill="#7f1d1d"/><rect x="96" y="40" width="24" height="52" fill="#7f1d1d"/></g><g transform="translate(155 0)"><rect x="0" y="120" width="148" height="220" rx="4" fill="#a54835"/><path d="M-10 120 L74 52 L158 120 Z" fill="#1f2937"/><rect x="24" y="165" width="34" height="54" rx="4" fill="#dbeafe"/><rect x="90" y="165" width="34" height="54" rx="4" fill="#dbeafe"/><rect x="55" y="250" width="38" height="90" rx="4" fill="#7c3aed"/><rect x="8" y="104" width="132" height="18" fill="#f8fafc"/><rect x="28" y="35" width="24" height="56" fill="#7f1d1d"/><rect x="96" y="40" width="24" height="52" fill="#7f1d1d"/></g><g transform="translate(310 0)"><rect x="0" y="120" width="148" height="220" rx="4" fill="#a54835"/><path d="M-10 120 L74 52 L158 120 Z" fill="#1f2937"/><rect x="24" y="165" width="34" height="54" rx="4" fill="#dbeafe"/><rect x="90" y="165" width="34" height="54" rx="4" fill="#dbeafe"/><rect x="55" y="250" width="38" height="90" rx="4" fill="#7c3aed"/><rect x="8" y="104" width="132" height="18" fill="#f8fafc"/><rect x="28" y="35" width="24" height="56" fill="#7f1d1d"/><rect x="96" y="40" width="24" height="52" fill="#7f1d1d"/></g><g transform="translate(465 0)"><rect x="0" y="120" width="148" height="220" rx="4" fill="#a54835"/><path d="M-10 120 L74 52 L158 120 Z" fill="#1f2937"/><rect x="24" y="165" width="34" height="54" rx="4" fill="#dbeafe"/><rect x="90" y="165" width="34" height="54" rx="4" fill="#dbeafe"/><rect x="55" y="250" width="38" height="90" rx="4" fill="#7c3aed"/><rect x="8" y="104" width="132" height="18" fill="#f8fafc"/><rect x="28" y="35" width="24" height="56" fill="#7f1d1d"/><rect x="96" y="40" width="24" height="52" fill="#7f1d1d"/></g><g transform="translate(620 0)"><rect x="0" y="120" width="148" height="220" rx="4" fill="#a54835"/><path d="M-10 120 L74 52 L158 120 Z" fill="#1f2937"/><rect x="24" y="165" width="34" height="54" rx="4" fill="#dbeafe"/><rect x="90" y="165" width="34" height="54" rx="4" fill="#dbeafe"/><rect x="55" y="250" width="38" height="90" rx="4" fill="#7c3aed"/><rect x="8" y="104" width="132" height="18" fill="#f8fafc"/><rect x="28" y="35" width="24" height="56" fill="#7f1d1d"/><rect x="96" y="40" width="24" height="52" fill="#7f1d1d"/></g><g transform="translate(775 0)"><rect x="0" y="120" width="148" height="220" rx="4" fill="#a54835"/><path d="M-10 120 L74 52 L158 120 Z" fill="#1f2937"/><rect x="24" y="165" width="34" height="54" rx="4" fill="#dbeafe"/><rect x="90" y="165" width="34" height="54" rx="4" fill="#dbeafe"/><rect x="55" y="250" width="38" height="90" rx="4" fill="#7c3aed"/><rect x="8" y="104" width="132" height="18" fill="#f8fafc"/><rect x="28" y="35" width="24" height="56" fill="#7f1d1d"/><rect x="96" y="40" width="24" height="52" fill="#7f1d1d"/></g>
      </g><g transform="translate(760 210)"><rect x="0" y="0" width="250" height="300" rx="8" fill="#78350f"/><path d="M-15 0 L125 -88 L265 0 Z" fill="#1f2937"/><rect x="42" y="54" width="50" height="58" rx="5" fill="#dbeafe"/><rect x="152" y="54" width="50" height="58" rx="5" fill="#dbeafe"/><rect x="42" y="145" width="50" height="58" rx="5" fill="#dbeafe"/><rect x="152" y="145" width="50" height="58" rx="5" fill="#dbeafe"/><rect x="98" y="218" width="55" height="82" fill="#7c3aed"/></g>
  <rect x="42" y="42" width="420" height="58" rx="29" fill="rgba(15,23,42,0.78)"/>
  <path d="M95 72H410" stroke="#dbeafe" stroke-width="10" stroke-linecap="round" opacity="0.92"/>
  <path d="M95 72H245" stroke="#60a5fa" stroke-width="10" stroke-linecap="round"/>
  
  <g transform="translate(1060 42)"><rect width="78" height="58" rx="29" fill="rgba(255,255,255,0.88)"/><path d="M39 10L18 19v17c0 16 9 28 21 33 12-5 21-17 21-33V19L39 10z" fill="#2563eb"/><path d="M29 37 L37 45 L51 27" fill="none" stroke="#fff" stroke-width="6" stroke-linecap="round" stroke-linejoin="round"/></g>
</svg>