<svg xmlns="http://www.w3.org/2000/svg" width="1200" height="675" viewBox="0 0 1200 675" role="img" aria-labelledby="title desc">
  <title id="title">UK landlord legal notice and court papers</title><desc id="desc">UK-relevant illustration for CompliantUK landlord compliance content.</desc>
  <defs><linearGradient id="sky" x1="0" y1="0" x2="0" y2="1"><stop offset="0" stop-color="#dbeafe"/><stop offset="1" stop-color="#f8fafc"/></linearGradient></defs>
  
        <rect width="1200" height="675" fill="#0f172a"/><rect x="90" y="85" width="1020" height="505" rx="24" fill="#f8fafc"/><rect x="150" y="145" width="440" height="360" rx="12" fill="#e2e8f0"/><rect x="635" y="145" width="360" height="360" rx="12" fill="#fff" stroke="#cbd5e1" stroke-width="6"/><rect x="690" y="250" width="250" height="16" rx="8" fill="#94a3b8" opacity="0.72"/><rect x="690" y="298" width="250" height="16" rx="8" fill="#94a3b8" opacity="0.72"/><rect x="690" y="346" width="250" height="16" rx="8" fill="#94a3b8" opacity="0.72"/><rect x="690" y="394" width="250" height="16" rx="8" fill="#94a3b8" opacity="0.72"/><rect x="690" y="442" width="250" height="16" rx="8" fill="#94a3b8" opacity="0.72"/><circle cx="210" cy="215" r="34" fill="#dc2626"/><rect x="270" y="195" width="250" height="20" rx="10" fill="#64748b" opacity="0.75"/><rect x="270" y="253" width="250" height="20" rx="10" fill="#64748b" opacity="0.75"/><rect x="270" y="311" width="250" height="20" rx="10" fill="#64748b" opacity="0.75"/><rect x="270" y="369" width="250" height="20" rx="10" fill="#64748b" opacity="0.75"/><path d="M205 215 L224 235 L262 187" fill="none" stroke="#fff" stroke-width="14" stroke-linecap="round" stroke-linejoin="round"/>
  <rect x="42" y="42" width="420" height="58" rx="29" fill="rgba(15,23,42,0.78)"/>
  <path d="M95 72H410" stroke="#dbeafe" stroke-width="10" stroke-linecap="round" opacity="0.92"/>
  <path d="M95 72H245" stroke="#60a5fa" stroke-width="10" stroke-linecap="round"/>
  
  <g transform="translate(1060 42)"><rect width="78" height="58" rx="29" fill="rgba(255,255,255,0.88)"/><path d="M39 10L18 19v17c0 16 9 28 21 33 12-5 21-17 21-33V19L39 10z" fill="#2563eb"/><path d="M29 37 L37 45 L51 27" fill="none" stroke="#fff" stroke-width="6" stroke-linecap="round" stroke-linejoin="round"/></g>
</svg>