<svg xmlns="http://www.w3.org/2000/svg" width="1200" height="675" viewBox="0 0 1200 675" role="img" aria-labelledby="title desc">
  <title id="title">UK rental repairs and property safety</title><desc id="desc">UK-relevant illustration for CompliantUK landlord compliance content.</desc>
  <defs><linearGradient id="sky" x1="0" y1="0" x2="0" y2="1"><stop offset="0" stop-color="#dbeafe"/><stop offset="1" stop-color="#f8fafc"/></linearGradient></defs>
  
        <rect width="1200" height="675" fill="#fef3c7"/><rect x="0" y="425" width="1200" height="250" fill="#78350f"/><g transform="translate(155 210)"><rect x="0" y="100" width="360" height="240" rx="8" fill="#b45309"/><path d="M-25 100 L180 -55 L385 100 Z" fill="#334155"/><rect x="70" y="160" width="72" height="75" rx="7" fill="#dbeafe"/><rect x="220" y="160" width="72" height="75" rx="7" fill="#dbeafe"/><rect x="150" y="250" width="62" height="90" fill="#ca8a04"/></g><g transform="translate(700 230) rotate(-18)"><rect x="0" y="0" width="90" height="290" rx="42" fill="#64748b"/><rect x="28" y="-70" width="34" height="130" rx="17" fill="#475569"/><rect x="-34" y="250" width="158" height="48" rx="24" fill="#334155"/></g><path d="M800 265 L970 435" stroke="#0f172a" stroke-width="26" stroke-linecap="round"/>
  <rect x="42" y="42" width="420" height="58" rx="29" fill="rgba(15,23,42,0.78)"/>
  <path d="M95 72H410" stroke="#dbeafe" stroke-width="10" stroke-linecap="round" opacity="0.92"/>
  <path d="M95 72H245" stroke="#60a5fa" stroke-width="10" stroke-linecap="round"/>
  
  <g transform="translate(1060 42)"><rect width="78" height="58" rx="29" fill="rgba(255,255,255,0.88)"/><path d="M39 10L18 19v17c0 16 9 28 21 33 12-5 21-17 21-33V19L39 10z" fill="#2563eb"/><path d="M29 37 L37 45 L51 27" fill="none" stroke="#fff" stroke-width="6" stroke-linecap="round" stroke-linejoin="round"/></g>
</svg>