<svg xmlns="http://www.w3.org/2000/svg" width="1200" height="675" viewBox="0 0 1200 675" role="img" aria-labelledby="title desc">
  <title id="title">UK rent increase and finance paperwork</title><desc id="desc">UK-relevant illustration for CompliantUK landlord compliance content.</desc>
  <defs><linearGradient id="sky" x1="0" y1="0" x2="0" y2="1"><stop offset="0" stop-color="#dbeafe"/><stop offset="1" stop-color="#f8fafc"/></linearGradient></defs>
  
        <rect width="1200" height="675" fill="#f0fdf4"/><rect x="120" y="95" width="455" height="475" rx="18" fill="#fff" stroke="#bbf7d0" stroke-width="8"/><rect x="625" y="145" width="430" height="360" rx="18" fill="#052e16"/><rect x="185" y="230" width="320" height="18" rx="9" fill="#94a3b8" opacity="0.65"/><rect x="185" y="285" width="320" height="18" rx="9" fill="#94a3b8" opacity="0.65"/><rect x="185" y="340" width="320" height="18" rx="9" fill="#94a3b8" opacity="0.65"/><rect x="185" y="395" width="320" height="18" rx="9" fill="#94a3b8" opacity="0.65"/><rect x="185" y="450" width="320" height="18" rx="9" fill="#94a3b8" opacity="0.65"/><path d="M685 410 L775 340 L855 370 L980 250" fill="none" stroke="#22c55e" stroke-width="18" stroke-linecap="round" stroke-linejoin="round"/>
  <rect x="42" y="42" width="420" height="58" rx="29" fill="rgba(15,23,42,0.78)"/>
  <path d="M95 72H410" stroke="#dbeafe" stroke-width="10" stroke-linecap="round" opacity="0.92"/>
  <path d="M95 72H245" stroke="#60a5fa" stroke-width="10" stroke-linecap="round"/>
  
  <g transform="translate(1060 42)"><rect width="78" height="58" rx="29" fill="rgba(255,255,255,0.88)"/><path d="M39 10L18 19v17c0 16 9 28 21 33 12-5 21-17 21-33V19L39 10z" fill="#2563eb"/><path d="M29 37 L37 45 L51 27" fill="none" stroke="#fff" stroke-width="6" stroke-linecap="round" stroke-linejoin="round"/></g>
</svg>